<svg width="960" height="720" xmlns="http://www.w3.org/2000/svg" xmlns:xlink="http://www.w3.org/1999/xlink" overflow="hidden"><g><rect x="0" y="0" width="960" height="720" fill="#FFFFFF"/><path d="M612 51 612 706.229 610 706.229 610 51ZM615 704.895 611 712.895 607 704.895Z" fill="#156082"/><text font-family="Courier New,Courier New_MSFontService,sans-serif" font-weight="400" font-size="12" transform="translate(358.592 65)">StreamBaseline</text><text font-family="Courier New,Courier New_MSFontService,sans-serif" font-weight="400" font-size="12" transform="translate(458.925 65)">::</text><text font-family="Courier New,Courier New_MSFontService,sans-serif" font-weight="400" font-size="12" transform="translate(473.259 65)">init</text><text font-family="Courier New,Courier New_MSFontService,sans-serif" font-weight="400" font-size="12" transform="translate(501.925 65)">()</text><text font-family="Courier New,Courier New_MSFontService,sans-serif" font-weight="400" font-size="12" transform="translate(365.759 79)">Ring::run(</text><text fill="#215F9A" font-family="Courier New,Courier New_MSFontService,sans-serif" font-weight="700" font-size="12" transform="translate(437.425 79)">EventType</text><text fill="#215F9A" font-family="Courier New,Courier New_MSFontService,sans-serif" font-weight="700" font-size="12" transform="translate(501.925 79)">::</text><text fill="#215F9A" font-family="Courier New,Courier New_MSFontService,sans-serif" font-weight="700" font-size="12" transform="translate(516.259 79)">StreamInit</text><text font-family="Courier New,Courier New_MSFontService,sans-serif" font-weight="400" font-size="12" transform="translate(587.925 79)">)</text><text font-family="Courier New,Courier New_MSFontService,sans-serif" font-weight="400" font-size="12" transform="translate(372.925 93)">send_from_NPU_to_MA</text><text font-family="Courier New,Courier New_MSFontService,sans-serif" font-weight="400" font-size="12" transform="translate(509.092 93)">()</text><text font-family="Courier New,Courier New_MSFontService,sans-serif" font-weight="400" font-size="12" transform="translate(380.092 108)">register_event</text><text font-family="Courier New,Courier New_MSFontService,sans-serif" font-weight="400" font-size="12" transform="translate(480.425 108)">(</text><text font-family="Courier New,Courier New_MSFontService,sans-serif" font-weight="400" font-size="12" transform="translate(487.592 108)">PacketBundle</text><text font-family="Courier New,Courier New_MSFontService,sans-serif" font-weight="400" font-size="12" transform="translate(573.592 108)">)</text><text font-family="Courier New,Courier New_MSFontService,sans-serif" font-weight="400" font-size="12" transform="translate(358.369 140)">PacketBundle</text><text font-family="Courier New,Courier New_MSFontService,sans-serif" font-weight="400" font-size="12" transform="translate(444.369 140)">::call()</text><text font-family="Courier New,Courier New_MSFontService,sans-serif" font-weight="400" font-size="12" transform="translate(365.536 154)">Ring::run(</text><text fill="#215F9A" font-family="Courier New,Courier New_MSFontService,sans-serif" font-weight="700" font-size="12" transform="translate(437.203 154)">EventType</text><text fill="#215F9A" font-family="Courier New,Courier New_MSFontService,sans-serif" font-weight="700" font-size="12" transform="translate(501.703 154)">::General</text><text font-family="Courier New,Courier New_MSFontService,sans-serif" font-weight="400" font-size="12" transform="translate(566.203 154)">)</text><text font-family="Courier New,Courier New_MSFontService,sans-serif" font-weight="400" font-size="12" transform="translate(372.703 168)">Ring::ready()</text><text font-family="Courier New,Courier New_MSFontService,sans-serif" font-weight="400" font-size="12" transform="translate(379.869 183)">sim_send</text><text font-family="Courier New,Courier New_MSFontService,sans-serif" font-weight="400" font-size="12" transform="translate(379.869 197)">sim_recv</text><text font-family="Courier New,Courier New_MSFontService,sans-serif" font-weight="400" font-size="12" transform="translate(379.869 212)">reduce()</text><text font-family="Courier New,Courier New_MSFontService,sans-serif" font-weight="400" font-size="12" transform="translate(372.703 226)">Iteratable</text><text font-family="Courier New,Courier New_MSFontService,sans-serif" font-weight="400" font-size="12" transform="translate(444.369 226)">()</text><text font-family="Courier New,Courier New_MSFontService,sans-serif" font-weight="400" font-size="12" transform="translate(358.369 263)">handleEvent</text><text font-family="Courier New,Courier New_MSFontService,sans-serif" font-weight="400" font-size="12" transform="translate(437.203 263)">(</text><text fill="#215F9A" font-family="Courier New,Courier New_MSFontService,sans-serif" font-weight="700" font-size="12" transform="translate(444.369 263)">EventType</text><text fill="#215F9A" font-family="Courier New,Courier New_MSFontService,sans-serif" font-weight="700" font-size="12" transform="translate(508.869 263)">::</text><text fill="#215F9A" font-family="Courier New,Courier New_MSFontService,sans-serif" font-weight="700" font-size="12" transform="translate(523.203 263)">PktReceived</text><text font-family="Courier New,Courier New_MSFontService,sans-serif" font-weight="400" font-size="12" transform="translate(602.036 263)">)</text><text font-family="Courier New,Courier New_MSFontService,sans-serif" font-weight="400" font-size="12" transform="translate(365.536 277)">Ring::run(</text><text fill="#215F9A" font-family="Courier New,Courier New_MSFontService,sans-serif" font-weight="700" font-size="12" transform="translate(437.203 277)">EventType</text><text fill="#215F9A" font-family="Courier New,Courier New_MSFontService,sans-serif" font-weight="700" font-size="12" transform="translate(501.703 277)">::</text><text fill="#215F9A" font-family="Courier New,Courier New_MSFontService,sans-serif" font-weight="700" font-size="12" transform="translate(516.036 277)">PktReceived</text><text font-family="Courier New,Courier New_MSFontService,sans-serif" font-weight="400" font-size="12" transform="translate(594.869 277)">)</text><text font-family="Courier New,Courier New_MSFontService,sans-serif" font-weight="400" font-size="12" transform="translate(372.703 291)">send_from_MA_to_NPU</text><text font-family="Courier New,Courier New_MSFontService,sans-serif" font-weight="400" font-size="12" transform="translate(508.869 291)">()</text><text font-family="Courier New,Courier New_MSFontService,sans-serif" font-weight="400" font-size="12" transform="translate(372.703 306)">register_event</text><text font-family="Courier New,Courier New_MSFontService,sans-serif" font-weight="400" font-size="12" transform="translate(473.036 306)">(</text><text font-family="Courier New,Courier New_MSFontService,sans-serif" font-weight="400" font-size="12" transform="translate(480.203 306)">PacketBundle</text><text font-family="Courier New,Courier New_MSFontService,sans-serif" font-weight="400" font-size="12" transform="translate(566.203 306)">)</text><text font-family="Courier New,Courier New_MSFontService,sans-serif" font-weight="400" font-size="12" transform="translate(358.369 342)">PacketBundle</text><text font-family="Courier New,Courier New_MSFontService,sans-serif" font-weight="400" font-size="12" transform="translate(444.369 342)">::call</text><text font-family="Courier New,Courier New_MSFontService,sans-serif" font-weight="400" font-size="12" transform="translate(365.536 356)">Ring::run(</text><text fill="#215F9A" font-family="Courier New,Courier New_MSFontService,sans-serif" font-weight="700" font-size="12" transform="translate(437.203 356)">EventType</text><text fill="#215F9A" font-family="Courier New,Courier New_MSFontService,sans-serif" font-weight="700" font-size="12" transform="translate(501.703 356)">::General</text><text font-family="Courier New,Courier New_MSFontService,sans-serif" font-weight="400" font-size="12" transform="translate(566.203 356)">)</text><text font-family="Courier New,Courier New_MSFontService,sans-serif" font-weight="400" font-size="12" transform="translate(372.703 370)">Ring::ready()</text><path d="M762 51 762 706.229 760 706.229 760 51ZM765 704.895 761 712.895 757 704.895Z" fill="#156082"/><text font-family="Courier New,Courier New_MSFontService,sans-serif" font-weight="400" font-size="12" transform="translate(771.509 221)">Send to node n+1</text><text font-family="Courier New,Courier New_MSFontService,sans-serif" font-weight="400" font-size="12" transform="translate(771.625 240)">Receive from node n</text><text font-family="Courier New,Courier New_MSFontService,sans-serif" font-weight="400" font-size="12" transform="translate(907.792 240)">-</text><text font-family="Courier New,Courier New_MSFontService,sans-serif" font-weight="400" font-size="12" transform="translate(914.958 240)">1</text><text font-family="Courier New,Courier New_MSFontService,sans-serif" font-weight="400" font-size="12" transform="translate(798.792 254)">Trigger handler</text><path d="M609.123 191.008 753.823 208.992 753.577 210.977 608.877 192.992ZM752.87 205.851 760.316 210.807 751.884 213.79Z" fill="#156082"/><path d="M0.0371915-0.999308 142.528 4.30382 142.454 6.30243-0.0371915 0.999308ZM141.308 1.25631 149.153 5.55108 141.01 9.25078Z" fill="#156082" transform="matrix(-1 0 0 1 760.154 251)"/><text fill="#275317" font-family="Arial,Arial_MSFontService,sans-serif" font-weight="400" font-size="12" transform="translate(191.95 212)">decrement</text><text fill="#275317" font-family="Arial,Arial_MSFontService,sans-serif" font-weight="400" font-size="12" transform="translate(251.95 212)">stream_count</text><text fill="#275317" font-family="Arial,Arial_MSFontService,sans-serif" font-weight="400" font-size="12" transform="translate(183.365 227)">Check if</text><text fill="#275317" font-family="Arial,Arial_MSFontService,sans-serif" font-weight="400" font-size="12" transform="translate(230.032 227)">stream_count</text><text fill="#275317" font-family="Arial,Arial_MSFontService,sans-serif" font-weight="400" font-size="12" transform="translate(306.032 227)">is 0</text><path d="M488 192 609.912 192" stroke="#156082" stroke-width="2" stroke-miterlimit="8" stroke-dasharray="8 6" fill="none" fill-rule="evenodd"/><text fill="#275317" font-family="Arial,Arial_MSFontService,sans-serif" font-weight="400" font-size="12" transform="translate(191.95 84)">Set</text><text fill="#275317" font-family="Arial,Arial_MSFontService,sans-serif" font-weight="400" font-size="12" transform="translate(213.283 84)">stream_count</text><text fill="#275317" font-family="Arial,Arial_MSFontService,sans-serif" font-weight="400" font-size="12" transform="translate(289.283 84)">to n</text><text fill="#275317" font-family="Arial,Arial_MSFontService,sans-serif" font-weight="400" font-size="12" transform="translate(309.283 84)">-</text><text fill="#275317" font-family="Arial,Arial_MSFontService,sans-serif" font-weight="400" font-size="12" transform="translate(313.283 84)">1*</text><text fill="#275317" font-family="Arial,Arial_MSFontService,sans-serif" font-weight="400" font-size="12" transform="translate(174.049 705)">Queue next collective phase</text><path d="M342 120.861C342 128.347 346.497 134.665 352.494 135.604L352.494 134.326 354 135.722 352.494 136.883 352.494 135.604C346.497 134.665 342 128.347 342 120.861Z" fill="#156082" fill-rule="evenodd"/><path d="M354 106C347.373 106 342 112.653 342 120.861 342 112.653 347.373 106 354 106Z" fill="#114D69" fill-rule="evenodd"/><path d="M342 120.861C342 128.347 346.497 134.665 352.494 135.604L352.494 134.326 354 135.722 352.494 136.883 352.494 135.604C346.497 134.665 342 128.347 342 120.861L342 120.861C342 112.653 347.373 106 354 106L354 106C347.373 106 342 112.653 342 120.861" stroke="#042433" stroke-width="2" stroke-miterlimit="8" fill="none" fill-rule="evenodd"/><text font-family="Aptos,Aptos_MSFontService,sans-serif" font-weight="700" font-size="16" transform="translate(562.726 32)">System Layer</text><text font-family="Aptos,Aptos_MSFontService,sans-serif" font-weight="700" font-size="16" transform="translate(707.806 33)">Network Layer</text><text fill="#275317" font-family="Arial,Arial_MSFontService,sans-serif" font-weight="400" font-size="12" transform="translate(147.418 115)">Send data from NPU to memory.</text><text fill="#275317" font-family="Arial,Arial_MSFontService,sans-serif" font-weight="400" font-size="12" transform="translate(69.4183 129)">Now we are ready to send data through network</text><text font-family="Courier New,Courier New_MSFontService,sans-serif" font-weight="400" font-size="12" transform="translate(358.369 440)">PacketBundle</text><text font-family="Courier New,Courier New_MSFontService,sans-serif" font-weight="400" font-size="12" transform="translate(444.369 440)">::call()</text><text font-family="Courier New,Courier New_MSFontService,sans-serif" font-weight="400" font-size="12" transform="translate(365.536 454)">Ring::run(</text><text fill="#215F9A" font-family="Courier New,Courier New_MSFontService,sans-serif" font-weight="700" font-size="12" transform="translate(437.203 454)">EventType</text><text fill="#215F9A" font-family="Courier New,Courier New_MSFontService,sans-serif" font-weight="700" font-size="12" transform="translate(501.703 454)">::General</text><text font-family="Courier New,Courier New_MSFontService,sans-serif" font-weight="400" font-size="12" transform="translate(566.203 454)">)</text><text font-family="Courier New,Courier New_MSFontService,sans-serif" font-weight="400" font-size="12" transform="translate(372.703 468)">Ring::ready()</text><text font-family="Courier New,Courier New_MSFontService,sans-serif" font-weight="400" font-size="12" transform="translate(379.869 483)">sim_send</text><text font-family="Courier New,Courier New_MSFontService,sans-serif" font-weight="400" font-size="12" transform="translate(444.369 483)">/</text><text font-family="Courier New,Courier New_MSFontService,sans-serif" font-weight="400" font-size="12" transform="translate(458.703 483)">sim_recv</text><text font-family="Courier New,Courier New_MSFontService,sans-serif" font-weight="400" font-size="12" transform="translate(379.869 497)">reduce()</text><text font-family="Courier New,Courier New_MSFontService,sans-serif" font-weight="400" font-size="12" transform="translate(372.703 512)">iteratable</text><text font-family="Courier New,Courier New_MSFontService,sans-serif" font-weight="400" font-size="12" transform="translate(444.369 512)">()</text><text font-family="Courier New,Courier New_MSFontService,sans-serif" font-weight="400" font-size="12" transform="translate(357.549 567)">handleEvent</text><text font-family="Courier New,Courier New_MSFontService,sans-serif" font-weight="400" font-size="12" transform="translate(436.383 567)">(</text><text fill="#215F9A" font-family="Courier New,Courier New_MSFontService,sans-serif" font-weight="700" font-size="12" transform="translate(443.549 567)">EventType</text><text fill="#215F9A" font-family="Courier New,Courier New_MSFontService,sans-serif" font-weight="700" font-size="12" transform="translate(508.049 567)">::</text><text fill="#215F9A" font-family="Courier New,Courier New_MSFontService,sans-serif" font-weight="700" font-size="12" transform="translate(522.383 567)">PktReceived</text><text font-family="Courier New,Courier New_MSFontService,sans-serif" font-weight="400" font-size="12" transform="translate(601.216 567)">)</text><text font-family="Courier New,Courier New_MSFontService,sans-serif" font-weight="400" font-size="12" transform="translate(364.716 581)">Ring::run(</text><text fill="#215F9A" font-family="Courier New,Courier New_MSFontService,sans-serif" font-weight="700" font-size="12" transform="translate(436.383 581)">EventType</text><text fill="#215F9A" font-family="Courier New,Courier New_MSFontService,sans-serif" font-weight="700" font-size="12" transform="translate(500.883 581)">::</text><text fill="#215F9A" font-family="Courier New,Courier New_MSFontService,sans-serif" font-weight="700" font-size="12" transform="translate(515.216 581)">PktReceived</text><text font-family="Courier New,Courier New_MSFontService,sans-serif" font-weight="400" font-size="12" transform="translate(594.049 581)">)</text><text font-family="Courier New,Courier New_MSFontService,sans-serif" font-weight="400" font-size="12" transform="translate(371.883 595)">send_from_MA_to_NPU</text><text font-family="Courier New,Courier New_MSFontService,sans-serif" font-weight="400" font-size="12" transform="translate(508.049 595)">()</text><text font-family="Courier New,Courier New_MSFontService,sans-serif" font-weight="400" font-size="12" transform="translate(379.049 610)">register_event</text><text font-family="Courier New,Courier New_MSFontService,sans-serif" font-weight="400" font-size="12" transform="translate(479.383 610)">(</text><text font-family="Courier New,Courier New_MSFontService,sans-serif" font-weight="400" font-size="12" transform="translate(486.549 610)">PacketBundle</text><text font-family="Courier New,Courier New_MSFontService,sans-serif" font-weight="400" font-size="12" transform="translate(572.549 610)">)</text><text font-family="Courier New,Courier New_MSFontService,sans-serif" font-weight="400" font-size="12" transform="translate(357.549 635)">PacketBundle</text><text font-family="Courier New,Courier New_MSFontService,sans-serif" font-weight="400" font-size="12" transform="translate(443.549 635)">::call</text><text font-family="Courier New,Courier New_MSFontService,sans-serif" font-weight="400" font-size="12" transform="translate(364.716 649)">Ring::run(</text><text fill="#215F9A" font-family="Courier New,Courier New_MSFontService,sans-serif" font-weight="700" font-size="12" transform="translate(436.383 649)">EventType</text><text fill="#215F9A" font-family="Courier New,Courier New_MSFontService,sans-serif" font-weight="700" font-size="12" transform="translate(500.883 649)">::General</text><text font-family="Courier New,Courier New_MSFontService,sans-serif" font-weight="400" font-size="12" transform="translate(565.383 649)">)</text><text font-family="Courier New,Courier New_MSFontService,sans-serif" font-weight="400" font-size="12" transform="translate(371.883 663)">Ring::ready()</text><text font-family="Courier New,Courier New_MSFontService,sans-serif" font-weight="400" font-size="12" transform="translate(371.883 678)">iteratable</text><text font-family="Courier New,Courier New_MSFontService,sans-serif" font-weight="400" font-size="12" transform="translate(443.549 678)">()</text><text font-family="Courier New,Courier New_MSFontService,sans-serif" font-weight="400" font-size="12" transform="translate(371.883 692)">exit()</text><text font-family="Courier New,Courier New_MSFontService,sans-serif" font-weight="400" font-size="12" transform="translate(386.216 707)">proceed_next_vnet</text><text font-family="Courier New,Courier New_MSFontService,sans-serif" font-weight="400" font-size="12" transform="translate(508.049 707)">()</text><path d="M609.161 365.013 753.68 388.638 753.357 390.612 608.839 366.987ZM752.848 385.462 760.098 390.7 751.557 393.357Z" fill="#156082"/><path d="M611.261 481.035 753.555 519.58 753.032 521.511 610.739 482.965ZM753.052 516.336 759.728 522.289 750.961 524.058Z" fill="#156082"/><text font-family="Courier New,Courier New_MSFontService,sans-serif" font-weight="400" font-size="12" transform="translate(771.509 398)">Send to node n+1</text><text font-family="Courier New,Courier New_MSFontService,sans-serif" font-weight="400" font-size="12" transform="translate(770.805 525)">Last Send to node n+1</text><text font-family="Courier New,Courier New_MSFontService,sans-serif" font-weight="400" font-size="12" transform="translate(771.625 550)">Receive from node n</text><text font-family="Courier New,Courier New_MSFontService,sans-serif" font-weight="400" font-size="12" transform="translate(907.792 550)">-</text><text font-family="Courier New,Courier New_MSFontService,sans-serif" font-weight="400" font-size="12" transform="translate(914.958 550)">1</text><text font-family="Courier New,Courier New_MSFontService,sans-serif" font-weight="400" font-size="12" transform="translate(798.792 564)">Trigger handler</text><path d="M0.10787-0.994165 142.032 14.405 141.816 16.3933-0.10787 0.994165ZM141.03 11.2787 148.552 16.1183 140.167 19.232Z" fill="#156082" transform="matrix(-1 0 0 1 759.552 551)"/><path d="M342 319.361C342 326.595 346.497 332.7 352.494 333.608L352.494 332.33 354 333.722 352.494 334.887 352.494 333.608C346.497 332.7 342 326.595 342 319.361Z" fill="#156082" fill-rule="evenodd"/><path d="M354 305C347.373 305 342 311.43 342 319.361 342 311.43 347.373 305 354 305Z" fill="#114D69" fill-rule="evenodd"/><path d="M342 319.361C342 326.595 346.497 332.7 352.494 333.608L352.494 332.33 354 333.722 352.494 334.887 352.494 333.608C346.497 332.7 342 326.595 342 319.361L342 319.361C342 311.43 347.373 305 354 305L354 305C347.373 305 342 311.43 342 319.361" stroke="#042433" stroke-width="2" stroke-miterlimit="8" fill="none" fill-rule="evenodd"/><text fill="#275317" font-family="Arial,Arial_MSFontService,sans-serif" font-weight="400" font-size="12" transform="translate(147.4 313)">Send data from memory to NPU.</text><text fill="#275317" font-family="Arial,Arial_MSFontService,sans-serif" font-weight="400" font-size="12" transform="translate(33.4 327)">Now we are ready to forward this data through network</text><text fill="#275317" font-family="Arial,Arial_MSFontService,sans-serif" font-weight="400" font-size="12" transform="translate(386.817 404)">Several messages later…</text><text fill="#275317" font-family="Arial,Arial_MSFontService,sans-serif" font-weight="400" font-size="12" transform="translate(202.72 498)">Stream_count</text><text fill="#275317" font-family="Arial,Arial_MSFontService,sans-serif" font-weight="400" font-size="12" transform="translate(280.72 498)">is now 0</text><path d="M321 49C321 42.3726 326.373 37 333 37 339.627 37 345 42.3726 345 49 345 55.6274 339.627 61 333 61 326.373 61 321 55.6274 321 49Z" stroke="#156082" stroke-width="2" stroke-miterlimit="8" fill="#E59EDD" fill-rule="evenodd"/><text fill="#002060" font-family="Aptos,Aptos_MSFontService,sans-serif" font-weight="700" font-size="24" transform="translate(326.845 57)">1</text><path d="M321 158C321 151.373 326.373 146 333 146 339.627 146 345 151.373 345 158 345 164.627 339.627 170 333 170 326.373 170 321 164.627 321 158Z" stroke="#156082" stroke-width="2" stroke-miterlimit="8" fill="#E59EDD" fill-rule="evenodd"/><text fill="#002060" font-family="Aptos,Aptos_MSFontService,sans-serif" font-weight="700" font-size="24" transform="translate(326.845 166)">2</text><path d="M321 186C321 179.373 326.373 174 333 174 339.627 174 345 179.373 345 186 345 192.627 339.627 198 333 198 326.373 198 321 192.627 321 186Z" stroke="#156082" stroke-width="2" stroke-miterlimit="8" fill="#E59EDD" fill-rule="evenodd"/><text fill="#002060" font-family="Aptos,Aptos_MSFontService,sans-serif" font-weight="700" font-size="24" transform="translate(326.845 194)">3</text><path d="M321 260C321 253.373 326.373 248 333 248 339.627 248 345 253.373 345 260 345 266.627 339.627 272 333 272 326.373 272 321 266.627 321 260Z" stroke="#156082" stroke-width="2" stroke-miterlimit="8" fill="#E59EDD" fill-rule="evenodd"/><text fill="#002060" font-family="Aptos,Aptos_MSFontService,sans-serif" font-weight="700" font-size="24" transform="translate(326.845 268)">4</text><path d="M321 515C321 508.373 326.373 503 333 503 339.627 503 345 508.373 345 515 345 521.627 339.627 527 333 527 326.373 527 321 521.627 321 515Z" stroke="#156082" stroke-width="2" stroke-miterlimit="8" fill="#E59EDD" fill-rule="evenodd"/><text fill="#002060" font-family="Aptos,Aptos_MSFontService,sans-serif" font-weight="700" font-size="12" transform="translate(324.846 519)">5</text><text fill="#002060" font-family="Aptos,Aptos_MSFontService,sans-serif" font-weight="700" font-size="12" transform="translate(331.179 519)">-</text><text fill="#002060" font-family="Aptos,Aptos_MSFontService,sans-serif" font-weight="700" font-size="12" transform="translate(335.346 519)">2</text><path d="M321 671C321 664.373 326.373 659 333 659 339.627 659 345 664.373 345 671 345 677.627 339.627 683 333 683 326.373 683 321 677.627 321 671Z" stroke="#156082" stroke-width="2" stroke-miterlimit="8" fill="#E59EDD" fill-rule="evenodd"/><text fill="#002060" font-family="Aptos,Aptos_MSFontService,sans-serif" font-weight="700" font-size="12" transform="translate(324.846 675)">5</text><text fill="#002060" font-family="Aptos,Aptos_MSFontService,sans-serif" font-weight="700" font-size="12" transform="translate(331.179 675)">-</text><text fill="#002060" font-family="Aptos,Aptos_MSFontService,sans-serif" font-weight="700" font-size="12" transform="translate(335.346 675)">1</text><text fill="#275317" font-family="Arial,Arial_MSFontService,sans-serif" font-weight="400" font-size="12" transform="translate(191.276 658)">Ring::ready does nothing</text></g></svg>